<svg width="28" height="18" viewBox="0 0 28 18" version="1.1" xmlns="http://www.w3.org/2000/svg" xmlns:xlink="http://www.w3.org/1999/xlink">
<title>&#226;&#128;&#156;</title>
<desc>Created using Figma</desc>
<g id="Canvas" transform="translate(21 42)">
<g id="&#226;&#128;&#156;">
<use xlink:href="#path0_fill" transform="translate(-30 -70)" fill="#e51f6b"/>
<use xlink:href="#path0_fill" transform="translate(-30 -70)" fill="#e51f6b"/>
</g>
</g>
<defs>
<path id="path0_fill" d="M 9.85763 39.936C 9.85763 38.144 10.3056 36.352 11.2016 34.56C 12.1616 32.704 13.3456 31.2 14.7536 30.048C 16.1616 28.896 17.5376 28.32 18.8816 28.32C 19.5856 28.32 20.1616 28.512 20.6096 28.896C 21.1216 29.216 21.3776 29.728 21.3776 30.432C 21.3776 31.072 21.2176 31.52 20.8976 31.776C 20.5776 32.032 20.0656 32.256 19.3616 32.448C 18.7216 32.64 18.2416 32.832 17.9216 33.024C 17.0256 33.472 16.3216 34.144 15.8096 35.04C 15.3616 35.872 15.1376 36.8 15.1376 37.824C 15.1376 38.528 15.3296 39.104 15.7136 39.552C 16.0976 40 16.6096 40.224 17.2496 40.224C 18.1456 40.224 19.0096 39.936 19.8416 39.36C 20.6096 40 20.9936 40.768 20.9936 41.664C 20.9936 42.752 20.4176 43.744 19.2656 44.64C 18.1136 45.472 16.8656 45.888 15.5216 45.888C 13.8576 45.888 12.4816 45.376 11.3936 44.352C 10.3696 43.264 9.85763 41.792 9.85763 39.936ZM 25.2176 39.936C 25.2176 38.144 25.6656 36.352 26.5616 34.56C 27.5216 32.704 28.7056 31.2 30.1136 30.048C 31.5216 28.896 32.8976 28.32 34.2416 28.32C 34.9456 28.32 35.5216 28.512 35.9696 28.896C 36.4816 29.216 36.7376 29.728 36.7376 30.432C 36.7376 31.072 36.5776 31.52 36.2576 31.776C 35.9376 32.032 35.4256 32.256 34.7216 32.448C 34.0816 32.64 33.6016 32.832 33.2816 33.024C 32.3856 33.472 31.6816 34.144 31.1696 35.04C 30.7216 35.872 30.4976 36.8 30.4976 37.824C 30.4976 38.528 30.6896 39.104 31.0736 39.552C 31.4576 40 31.9696 40.224 32.6096 40.224C 33.5056 40.224 34.3696 39.936 35.2016 39.36C 35.9696 40 36.3536 40.768 36.3536 41.664C 36.3536 42.752 35.7776 43.744 34.6256 44.64C 33.4736 45.472 32.2256 45.888 30.8816 45.888C 29.2176 45.888 27.8416 45.376 26.7536 44.352C 25.7296 43.264 25.2176 41.792 25.2176 39.936Z"/>
</defs>
</svg>
